<?xml version="1.0" encoding="utf-8"?>
<!-- Generator: Adobe Illustrator 26.3.1, SVG Export Plug-In . SVG Version: 6.00 Build 0)  -->
<svg version="1.1" id="Layer_1" xmlns="http://www.w3.org/2000/svg" xmlns:xlink="http://www.w3.org/1999/xlink" x="0px" y="0px"
	 viewBox="0 0 651 649" style="enable-background:new 0 0 651 649;" xml:space="preserve">
<style type="text/css">
	.st0{fill:none;stroke:#000000;stroke-width:2;stroke-miterlimit:10;}
	.st1{fill:#191A23;}
	.st2{fill:#B9FF66;}
</style>
<path class="st0" d="M325.6,162.1L346.1,0.5l-0.2,162.8L386.4,5.6L366,167.2l60-151.5l-40.5,157.9l78.5-143l-60.2,151.5l95.9-131.9
	L421,193.1L532.6,74.3L436.8,206l125.6-103.8L450.8,220.9l137.7-87.2L462.7,237.5l147.6-69.4l-137.7,87.2L627.7,205l-147.6,69.4
	l160.2-30.6l-155.1,50.4L648,283.8l-160.2,30.5l162.8,10.2l-162.8,10.2L648,365.1l-162.8-10.2l155.1,50.2l-160.2-30.5L627.7,444
	l-155.1-50.4l137.7,87.2l-147.6-69.4l125.8,103.8l-137.7-87.4l111.7,118.8l-125.6-104l95.8,131.9L421.1,455.8l78.7,142.7
	l-95.9-131.9L464,618.2l-78.5-142.7L426,633.2l-60-151.5l20.4,161.7l-40.5-157.9l0.2,163l-20.4-161.7l-20.4,161.7v-163l-40.5,157.9
	l20.6-161.7l-60,151.5l40.5-157.7l-78.5,142.7l60.2-151.5l-95.9,131.9l78.7-142.7L118.5,574.7l95.9-131.9l-125.6,104L200.5,428
	L62.8,515.3l125.8-103.8L40.9,480.9l137.7-87.2L23.5,444l147.6-69.4L10.9,405.1L166,354.9L3.3,365.1l160.2-30.5L0.7,324.4
	l162.8-10.2L3.3,283.8L166,294.1L10.9,243.7l160.2,30.6L23.5,205l155.1,50.4L40.9,168.1l147.6,69.4L62.8,133.7l137.7,87.2
	L88.8,102.3l125.6,103.8L118.5,74.3l111.7,118.8L151.5,50.3l95.9,131.9L187.3,30.6l78.5,142.9L225.3,15.7l60,151.5L264.7,5.6
	l40.5,157.7V0.5L325.6,162.1z"/>
<path class="st0" d="M325.6,162.1L346.1,0.5l-0.2,162.8L386.4,5.6L366,167.2l60-151.5l-40.5,157.9l78.5-143l-60.2,151.5l95.9-131.9
	L421,193.1L532.6,74.3L436.8,206l125.6-103.8L450.8,220.9l137.7-87.2L462.7,237.5l147.6-69.4l-137.7,87.2L627.7,205l-147.6,69.4
	l160.2-30.6l-155.1,50.4L648,283.8l-160.2,30.5l162.8,10.2l-162.8,10.2L648,365.1l-162.8-10.2l155.1,50.2l-160.2-30.5L627.7,444
	l-155.1-50.4l137.7,87.2l-147.6-69.4l125.8,103.8l-137.7-87.4l111.7,118.8l-125.6-104l95.8,131.9L421.1,455.8l78.7,142.7
	l-95.9-131.9L464,618.2l-78.5-142.7L426,633.2l-60-151.5l20.4,161.7l-40.5-157.9l0.2,163l-20.4-161.7l-20.4,161.7v-163l-40.5,157.9
	l20.6-161.7l-60,151.5l40.5-157.7l-78.5,142.7l60.2-151.5l-95.9,131.9l78.7-142.7L118.5,574.7l95.9-131.9l-125.6,104L200.5,428
	L62.8,515.3l125.8-103.8L40.9,480.9l137.7-87.2L23.5,444l147.6-69.4L10.9,405.1L166,354.9L3.3,365.1l160.2-30.5L0.7,324.4
	l162.8-10.2L3.3,283.8L166,294.1L10.9,243.7l160.2,30.6L23.5,205l155.1,50.4L40.9,168.1l147.6,69.4L62.8,133.7l137.7,87.2
	L88.8,102.3l125.6,103.8L118.5,74.3l111.7,118.8L151.5,50.3l95.9,131.9L187.3,30.6l78.5,142.9L225.3,15.7l60,151.5L264.7,5.6
	l40.5,157.7V0.5L325.6,162.1z"/>
<g>
	<path id="Vector_00000044140295698638658480000013929909366754191789_" class="st1" d="M171,280l81.7,44.5L171,369.4l-44.7,81.5
		l-44.7-81.5L0,324.5L81.7,280l44.7-81.9L171,280z"/>
</g>
<g>
	<path id="Vector_00000052072011919846217630000005025350494991318428_" class="st2" d="M70.7,535.8l45.7,24.9l-45.7,25.1l-25,45.6
		l-25-45.6L-25,560.7l45.7-24.9l25-45.8L70.7,535.8z"/>
</g>
</svg>
